<svg width="271" height="191" viewBox="0 0 271 191" fill="none" xmlns="http://www.w3.org/2000/svg">
<path d="M101.29 191L16.7896 105.5L21.7099 68.0004L124.79 165.5L101.29 191Z" fill="#D67300"/>
<path d="M128.29 97.7617L159.29 77.2617L247.29 164L159.29 182.262L128.29 97.7617Z" fill="#D67300"/>
<path d="M78.7896 142.5L137.79 52.5L193.79 110.5L103.79 185.5L78.7896 142.5Z" fill="#D67300"/>
<path d="M125.719 166.5L30.0284 110.096L37.3427 89.9997L154.79 144L125.719 166.5Z" fill="#924600"/>
<path d="M191.746 154.467L146.183 94.2865L140.434 56.0001L248.29 163.985L191.746 154.467Z" fill="#924600"/>
<path d="M169.222 22L241.222 83.2432L218.722 105L149.79 43L169.222 22Z" fill="#EDC700"/>
<path d="M166.79 23.3351L195.058 13.6697L189.687 42.2769L166.79 23.3351Z" fill="#EDC700"/>
<path d="M189.687 42.2769L222.724 36.5557L217.353 65.163L189.687 42.2769Z" fill="#EDC700"/>
<path d="M217.353 65.163L245.622 55.4973L240.251 84.1046L217.353 65.163Z" fill="#EDC700"/>
</svg>
